<svg viewBox="0 0 512 512" xmlns="http://www.w3.org/2000/svg">
  <path d="M296.2,27.9c-24.9-14.3-55.5-14.3-80.4,0L78.4,107c-25,14.4-40.3,41-40.3,69.8v157.8c0,28.8,15.4,55.4,40.3,69.8l137.4,79.1c24.9,14.3,55.5,14.3,80.4,0l137.4-79.1c25-14.4,40.3-41,40.3-69.8V176.8c0-28.8-15.4-55.4-40.3-69.8L296.2,27.9z" fill="#0568FD"/>
  <path d="M250.1,418.8l-128.5-74c-4.5-2.6-4.5-9.1,0-11.7l63.2-36.4c3.7-2.1,8.1-2.1,11.8,0l53.5,30.8c3.7,2.1,8.1,2.1,11.8,0l53.5-30.8c3.7-2.1,5.9-6,5.9-10.2v-68.4v-79.6c0-5.2,5.6-8.4,10.1-5.9l63.2,36.4c3.7,2.1,5.9,6,5.9,10.2v152.8c0,4.2-2.3,8.1-5.9,10.2l-132.7,76.4C258.2,420.9,253.8,420.9,250.1,418.8z" fill="#FFFFFF"/>
</svg>
